<?xml version="1.0" standalone="no"?><!DOCTYPE svg PUBLIC "-//W3C//DTD SVG 1.1//EN" "http://www.w3.org/Graphics/SVG/1.1/DTD/svg11.dtd"><svg t="1597119162259" class="icon" viewBox="0 0 1820 1024" version="1.1" xmlns="http://www.w3.org/2000/svg" p-id="1914" xmlns:xlink="http://www.w3.org/1999/xlink" width="355.46875" height="200"><defs><style type="text/css"></style></defs><path d="M0 0h1726.030718v970.892279H0z" fill="#ffffff" p-id="1915"></path><path d="M239.36594 666.55207a178.391747 178.391747 0 0 1-164.382851-109.58569c17.303458 11.536358 38.93278 24.513951 66.329203 31.715814 8.651729 20.188087 21.629322 38.93278 36.048152 56.236238a369.079306 369.079306 0 0 1-23.070558-51.910373c8.651729 1.441236 17.303458 4.325864 27.400737 4.325864h2.884629a253.612166 253.612166 0 0 0 17.303458 28.839816c11.536358 15.862222 28.839816 30.281051 40.374016 38.93278 0 1.441236-1.441236 1.441236-2.884629 1.441236z m-177.360444-158.617908a95.199224 95.199224 0 0 1-1.441236-20.188087 178.788734 178.788734 0 0 1 115.354948-167.267479 235.45648 235.45648 0 0 0-24.511793 30.281051c-21.629322 34.606916-44.699881 93.727783-31.715815 177.362602-24.513951-8.651729-37.491545-17.303458-37.491545-17.303458a137.087832 137.087832 0 0 0 40.374016 28.839816 174.329102 174.329102 0 0 0 7.210494 25.955187c-20.188087-11.536358-46.143274-28.839816-67.772596-57.679632z m164.385008-197.548531h14.418829c86.51729 0 158.61575 62.005496 175.919208 144.196922-21.629322 34.606916-51.910374 54.801475-74.983089 67.772596a239.439296 239.439296 0 0 1-43.258645 15.862222c-41.817409 8.651729-79.308954 10.092965-109.590005 5.7671-23.070558-102.379512 33.16568-207.643653 33.16568-207.643653-33.16568 34.606916-47.584509 80.75019-53.342979 115.357106a363.730768 363.730768 0 0 0-1.441236 87.960683c-10.092965-1.441236-20.188087-4.325864-28.839816-5.767101-11.536358-72.098461-2.884629-161.500379 87.960683-223.505875z m191.781431 180.245073a179.390688 179.390688 0 0 1-148.522786 174.477973 187.649745 187.649745 0 0 1-59.116552-63.446732c76.424325 2.884629 131.219328-10.092965 174.477972-50.469138 0 0-67.772596 47.584509-183.129701 33.16568a192.577562 192.577562 0 0 1-10.092965-25.955187 424.463317 424.463317 0 0 0 95.164704-1.43692c64.887967-8.651729 111.031241-46.143274 131.219328-66.329203zM148.522786 571.380894a137.165504 137.165504 0 0 1-5.7671-25.955187 168.661249 168.661249 0 0 0 28.839815 7.210493 174.346363 174.346363 0 0 0 7.210494 25.955187 8.668989 8.668989 0 0 1-5.7671-1.441236c-1.445551 1.441236-11.538515 0-24.516109-5.769257zM69.213832 317.596125l-20.185929 23.070558 24.511793 21.629322 20.188087-23.070558-24.513951-21.629322z m-10.09728 17.303458l5.7671-7.210494c2.884629-2.884629 4.325864-4.325864 4.325865-5.7671l2.888944 2.893259-5.767101 5.7671-1.441235 1.441236 4.325864 4.325864 1.441236-1.441235 2.884629-2.884629a4.466104 4.466104 0 0 0 1.441235-2.884629l2.884629 2.884629-1.441235 1.441236-2.884629 2.884628-1.441236 1.441236 5.7671 5.7671 2.884629-2.884629c2.884629-2.884629 4.325864-4.325864 4.325865-5.7671l2.884628 2.884629-2.884628 2.884629-1.441236 1.441236-7.210493 7.210493c-2.884629 2.884629-4.325864 4.325864-4.325865 5.7671l-2.886786-2.891101 2.884629-2.884629 2.884628-2.884629 1.441236-2.884629-5.7671-5.7671-1.441236 5.7671a5.033537 5.033537 0 0 0-1.441235 2.884629l-2.884629 2.884629-2.884629-2.884629c1.441236 0 2.884629-2.884629 4.325864-4.325865l1.441236-1.441235-4.325864-4.325865-1.441236 1.441236c-2.884629 2.884629-4.325864 4.325864-4.325864 5.7671l-2.878157-2.882471 2.884629-2.884629a5.033537 5.033537 0 0 1 1.441236-2.884629z m23.070558 0l-1.441235 4.325864h-5.762786l1.441236-4.325864z m-36.043836 2.882471l20.188086-23.070558c1.441236-1.441236 1.441236-2.884629 2.884629-4.325865 1.441236 1.441236 1.441236 2.884629 2.884629 2.884629l25.955187 23.070558c1.441236 1.441236 1.441236 1.441236 2.884629 1.441236l-2.884629 5.7671-2.886786-2.882471-20.18593 23.072715c1.441236 0 1.441236 1.441236 2.884629 1.441236l-2.884629 4.325864a5.033537 5.033537 0 0 1-1.441235-2.884628l-27.400738-23.072716c-1.441236 0-2.884629-1.441236-4.325864-2.884629 1.441236 0 2.884629-1.441236 4.325864-2.884629z m73.539696-51.910374l10.092965-5.7671a15.415612 15.415612 0 0 0 7.210493-4.325865l2.884629 4.325865a31.519478 31.519478 0 0 0-7.210494 4.325864l-2.884628 1.441236v1.441236a6.315115 6.315115 0 0 0-1.441236 4.325864 11.014234 11.014234 0 0 1 7.210493 2.884629 99.350328 99.350328 0 0 0 4.325865-11.536358 6.315115 6.315115 0 0 1 4.325864 1.441236v1.441236l-1.441235 1.441235c-1.441236 2.884629-1.441236 2.884629-1.441236 4.325865a16.272155 16.272155 0 0 0 15.862222 4.325864 8.668989 8.668989 0 0 0-1.441235 5.7671 23.879635 23.879635 0 0 1-17.303458-7.210493c0 1.441236-1.441236 1.441236-1.441236 2.884629 4.325864 5.7671 7.210493 10.092965 5.7671 12.977593l-5.7671 5.7671c-1.441236-1.441236-2.884629-2.884629-4.325865-2.884628a19.905449 19.905449 0 0 0 5.767101-4.325865c1.441236-1.441236 0-5.7671-2.884629-8.651729-1.441236 5.7671-5.7671 12.977593-11.536358 21.629323-1.441236-1.441236-2.884629-1.441236-5.7671-1.441236 5.7671-4.325864 10.092965-11.536358 14.418829-21.629323-1.441236 0-1.441236-1.441236-2.884629-1.441235-2.884629 7.210493-5.7671 12.977593-10.092965 17.303458a5.296757 5.296757 0 0 0-4.325864-1.441236q6.489875-4.325864 12.977593-17.303458h-2.884628c-2.884629 5.7671-5.7671 10.092965-10.092965 12.977594a5.296757 5.296757 0 0 0-4.325864-1.441236 39.366446 39.366446 0 0 0 12.977593-17.303458l-2.884629 1.441236a31.519478 31.519478 0 0 0-7.208336 4.330179l-2.884628-4.325864c1.441236 0 1.441236-1.441236 4.325864-1.441236l4.325864-4.325864z m4.325864-10.092965l10.095123-5.764942c1.441236 0 2.884629-1.441236 4.325864-2.884629l1.441236 2.884629c1.441236 1.441236 1.441236 2.884629 2.884629 4.325864l-4.325865 2.880314c0-1.441236-1.441236-2.884629-1.441236-4.325864l-27.400737 15.862222c1.441236 1.441236 1.441236 2.884629 2.884629 4.325864l-4.325865 2.884629c0-1.441236-1.441236-2.884629-1.441235-4.325864l-2.884629-5.769258a1.413188 1.413188 0 0 0 1.441235-1.441236c1.441236 0 1.441236-1.441236 2.884629-1.441235l11.536358-7.210494c-1.441236-1.441236-2.884629-1.441236-4.325865-2.884628l4.325865-2.880314c1.441236 2.884629 2.884629 2.884629 4.325864 5.7671z m74.980932-27.400737v2.886786l8.651729-1.441235c2.884629 0 4.325864-1.441236 7.210494-1.441236v1.441236a5.296757 5.296757 0 0 0 1.441235 4.325864l2.884629 14.418829a5.296757 5.296757 0 0 0 1.441236 4.325865v1.434763a8.668989 8.668989 0 0 0-5.7671 1.441235l-10.101595 1.449866v4.325865a3.823158 3.823158 0 0 0 4.325864 4.325864l7.210494-1.441236c4.325864 0 5.7671-2.884629 4.325864-7.210493a5.296757 5.296757 0 0 0 4.325865 1.441236c0 5.7671-2.884629 8.651729-7.210494 8.651729l-8.651729 1.441235q-8.651729 2.157538-8.651729-4.325864l-1.441235-5.7671-11.536358 1.441235c0 2.884629 1.441236 4.325864 1.441236 5.767101l-4.325865 1.441235c0-2.884629-1.441236-5.7671-1.441236-7.210493l-2.884628-17.303458a5.296757 5.296757 0 0 0-1.441236-4.325865 8.668989 8.668989 0 0 0 5.7671-1.441235l10.092965-1.441236-1.432606-4.323707c0-1.441236 0-1.441236-1.441235-2.884629v-1.441235h5.7671v1.441235c1.441236-2.884629 1.441236-1.441236 1.441235 0z m1.445551 7.212651l1.441236 7.210493 11.536358-1.441236-1.441236-7.210493-11.536358 1.441236z m-14.420987 2.884629l1.441236 7.210493 11.536358-1.441236-1.441236-7.210493-11.536358 1.441236z m15.862223 7.210493l1.441235 7.210493 11.536358-1.441236-1.441235-7.210493z m-14.420987 2.882471l1.441236 7.210493 11.538515-1.449865-1.441236-7.210494-11.536357 1.441236z m82.191425-24.513951l23.070558 4.325864a25.370494 25.370494 0 0 0 8.651729 1.441236c0 1.441236-1.441236 2.884629-1.441235 7.210493l-4.323707 28.839816c0 2.884629-1.441236 4.325864-2.884629 4.325865-1.441236 1.441236-4.325864 1.441236-7.210493 0a8.668989 8.668989 0 0 0-1.441236-5.767101c5.7671 1.441236 7.210493 1.441236 7.210493-1.441235l5.7671-30.281052-30.281051-5.769257-5.7671 28.839815a25.370494 25.370494 0 0 0-1.441236 8.651729l-5.7671-1.441235c0-1.441236 0-1.441236 1.441236-2.884629a5.296757 5.296757 0 0 1 1.441235-4.325865l4.323707-24.513951a25.370494 25.370494 0 0 0 1.443394-8.651729 17.495479 17.495479 0 0 0 7.210493 1.441236z m-8.651729 31.715814c2.884629-2.884629 7.210493-5.7671 8.651729-10.092964a99.352486 99.352486 0 0 0-4.325864-11.536358h4.325864c1.441236 2.884629 1.441236 5.7671 2.884629 8.651729a70.301231 70.301231 0 0 0 4.325865-10.092965c1.441236 0 1.441236 1.441236 2.884628 1.441236l1.441236 1.441236-1.441236 1.441235c0 1.441236-1.441236 1.441236-1.441235 2.884629-1.441236 2.884629-2.884629 4.325864-2.884629 5.7671 1.441236 2.884629 1.441236 5.7671 2.884629 8.651729-1.441236 0-2.884629 1.441236-4.325865 1.441236a5.296757 5.296757 0 0 0-1.441235-4.325865v-2.873841a1.413188 1.413188 0 0 1-1.441236 1.441236c-2.884629 4.325864-4.325864 7.210493-5.7671 7.210493-2.884629 1.441236-2.884629 0-4.325865-1.441236z m21.629323-7.210493c0-1.441236-1.441236-1.441236-1.441236-2.884629a56.704424 56.704424 0 0 0-2.884629-8.651729h1.441236c1.441236 0 1.441236 0 2.884629-1.441235 0 2.884629 1.441236 4.325864 1.441235 7.210493 0 1.441236 0 1.441236 1.441236 1.441235 1.441236-2.884629 2.884629-7.210493 4.325865-10.092964a1.413188 1.413188 0 0 1 1.441235 1.441236 4.466104 4.466104 0 0 0 2.884629 1.441235 1.413188 1.413188 0 0 0-1.441236 1.441236l-1.449865 1.452023-4.315077 8.651729c1.441236 5.7671 2.884629 8.651729 2.884629 11.536358a6.315115 6.315115 0 0 0-4.325865 1.441236c0-2.884629-1.441236-5.7671-1.441235-8.651729l-2.884629 2.884628-5.7671 5.767101h-1.441236c-1.441236 0-1.441236-1.441236-2.884629-1.441236a43.511077 43.511077 0 0 0 11.536358-11.536358z m79.308954 7.210493l4.325864 1.441236a30.883005 30.883005 0 0 0 4.325865 27.400738h-5.7671c-4.325864-10.092965-4.325864-18.744694-2.884629-28.839816z m-10.092965-7.210493l4.325865 4.325864h-1.441236c-1.441236 0-1.441236 0-2.884629 1.441236-7.210493 4.325864-14.418829 8.651729-21.629322 10.092965-1.441236-1.441236-1.441236-2.884629-2.884629-4.325865 8.651729 0 17.303458-4.325864 24.513951-11.536358z m-2.884629 31.715814h4.325865c0 5.7671 1.441236 11.536358 1.441235 18.744694h-5.7671v-4.315077h-1.441235c-12.977593-5.7671-20.188087-10.092965-23.070558-11.536358l1.441235-4.325864c5.7671 0 14.418829-4.325864 23.070558-11.536358a19.905449 19.905449 0 0 0 4.325865 5.7671h-1.441236c-1.441236 0-1.441236 0-2.884629 1.441236-7.210493 4.325864-12.977593 5.7671-17.303458 8.651729 1.441236 0 2.884629 1.441236 4.325865 1.441236s2.884629 1.441236 5.7671 2.884628a31.519478 31.519478 0 0 1 7.210493 4.325865c1.441236-5.7671 0-8.651729 0-11.536358z m69.213832 20.188087l11.536358 12.977594 4.325864 4.325864a1.413188 1.413188 0 0 1 1.441236 1.441236l-1.441236 1.441235-4.325864 4.325865-21.629323 18.761954q-2.157538 2.157538-8.651729-4.325865c1.441236-1.441236 1.441236-2.884629 2.884629-4.325864 2.884629 4.325864 4.325864 4.325864 5.7671 2.884629l23.070558-20.188087-14.418829-15.862222a25.314398 25.314398 0 0 1-5.7671-7.210494l2.884629-2.884629c0 4.325864 1.441236 5.7671 4.325865 8.651729z m-10.092965 1.441236l10.092965 11.536358c2.884629 4.325864 4.325864 5.7671 5.7671 5.7671l-2.884629 2.884629c-1.441236-1.441236-2.884629-4.325864-5.7671-7.210494l-10.099437-11.519097-2.884629-2.884629-1.441236-1.441236 2.884629-2.884629a7.726145 7.726145 0 0 0 4.325865 5.767101z m-2.884628 8.651729l5.7671 7.210493 4.325864 4.325865c-1.441236 0-1.441236 0-2.884629 1.441235-1.441236 0-1.441236 1.441236-2.884628 1.441236l-4.33018 2.901889q-4.315077 2.157538-4.325865 4.325865l-2.884628-4.325865a5.033537 5.033537 0 0 1 2.884628-1.441236l-8.651728-10.092964c-1.441236 1.441236-2.884629 1.441236-2.884629 2.884629l-2.884629-4.325865a19.905449 19.905449 0 0 1 5.7671-4.325864l4.325864-4.325865 4.325865-4.325864q0 6.489875 4.325864 8.651729z m-4.325865 1.441235l-5.7671 4.325865 8.651729 10.092965 5.7671-4.325865z m-364.818167 82.202213c5.7671-1.441236 10.092965-2.884629 11.536357-5.7671s0-5.7671-1.441235-5.7671c-1.441236-1.441236-4.325864 0-7.210494 2.884629l-5.7671 4.325864c-2.884629 2.884629-5.7671 2.884629-10.092964 1.441236-5.7671-2.884629-7.210493-7.210493-4.325865-14.418829 0-1.441236 1.441236-2.884629 2.884629-5.7671l1.441236-1.441236v-2.880314l10.092964 4.325865v1.441236c-5.7671-1.441236-10.092965 1.441236-12.977593 5.7671a5.266551 5.266551 0 0 0 2.884629 7.210493c1.441236 1.441236 4.325864 0 7.210493-2.884629l2.884629-2.884629c4.325864-4.325864 8.651729-5.7671 11.536358-2.884628q8.651729 4.325864 4.325864 12.977593c0 1.441236-1.441236 2.884629-2.884629 4.325864a1.413188 1.413188 0 0 1-1.441235 1.441236 1.413188 1.413188 0 0 0 1.441235 1.441236v1.441235l-10.092964-4.325864z m-27.396423 20.19456l2.884629-15.862223h1.441235c-1.441236 2.884629 0 4.325864 2.884629 5.767101l23.070558 5.7671c1.441236-5.7671 0-8.651729-5.7671-10.092965v-1.441236l8.651729 2.884629-7.210493 25.946557-8.651729-2.884629v-1.430448c5.7671 1.441236 8.651729-1.441236 10.092965-5.7671l-23.070559-5.769258c-2.884629-1.441236-4.325864 0-4.325864 2.884629z m5.7671 18.744693l-1.441236 8.651729 11.536358-2.884628-10.095122-5.764943zM1.441236 474.764167l1.441235-14.418829h1.441236c0 2.884629 0 2.884629 1.441236 2.884628a10.899884 10.899884 0 0 0 5.7671-1.441235l1.441235-10.092965c-2.884629-1.441236-4.325864-2.884629-5.7671-2.884629s-1.441236 1.441236-2.884629 2.884629h-1.43692l1.441235-8.651729h1.441236c0 1.441236 1.441236 2.884629 4.325865 5.7671l23.070558 12.977594v1.441235L8.651729 470.44909c-5.7671 1.441236-7.210493 2.884629-7.210493 4.325864z m0 27.400737L0 486.30484h1.441236a3.823158 3.823158 0 0 0 4.325864 4.325864h24.513951c0-5.7671-2.884629-8.651729-7.210493-8.651729v-1.441236H31.715814v27.400738h-8.651729v-1.441236c5.7671 0 7.210493-2.884629 7.210494-8.651729H5.7671q-4.325864-2.157538-4.325864 4.325865z m27.400737 5.767101l5.764943 25.948714-8.651729 1.441235v-1.441235c5.7671-1.441236 7.210493-5.7671 5.7671-11.536358 0-2.884629-1.441236-2.884629-2.884629-2.884629l-10.092964 2.884629c0 4.325864 2.884629 7.210493 8.651729 5.7671v1.454181l-14.41883 2.884629v-1.441236c4.325864-1.441236 5.7671-4.325864 5.767101-8.651729l-10.092965 2.880314c-1.441236 0-2.884629 1.441236-1.441236 4.325864a12.250503 12.250503 0 0 0 10.092965 10.092965v1.441236H7.210493L0 515.144655h1.441236c0 2.884629 1.441236 4.325864 4.325864 2.884629l21.633638-4.325864c1.441236-1.441236 1.441236-2.884629 1.441235-5.7671z m10.092965 83.634818a3.566411 3.566411 0 0 0-5.7671-1.441236l-5.7671 2.884629c-2.884629-1.441236-4.325864-5.7671-7.210494-10.092965-4.325864-10.092965-1.441236-17.303458 7.210494-21.629322 10.092965-2.884629 17.303458-1.441236 21.629322 8.651729 0 1.441236 1.441236 4.325864 1.441236 7.210493v1.441236c0 1.441236 1.441236 1.441236 2.884629 1.441236v1.441235l-10.092965 4.325865v-1.432606c4.325864-4.325864 5.7671-10.092965 4.325864-12.977593-2.884629-5.7671-7.210493-5.7671-17.303458-1.441236-8.651729 4.325864-11.536358 8.651729-10.092964 14.418829 1.441236 2.884629 2.884629 4.325864 4.325864 2.884629l4.325865-1.441236c1.441236 0 2.884629-2.884629 1.441235-5.7671h1.430448l7.210494 11.536358z m20.188087 5.7671l-10.092965 5.7671c2.884629 5.7671 5.7671 5.7671 10.092965 2.884629s4.325864-4.325864 2.884629-8.651729c-1.441236 0-1.441236-1.441236-2.884629 0z m-11.536358 30.281051l-5.769258-7.216965 7.210494-15.862223v-1.441235l-7.210494 4.325864c-2.884629 1.441236-2.884629 2.884629-1.441235 5.7671h-1.441236l-7.219124-12.966806h1.441236c1.441236 2.884629 2.884629 2.884629 5.7671 1.441236l17.303458-10.092965c2.884629-1.441236 2.884629-2.884629 1.441236-5.7671h1.447708l7.210493 12.977594c4.325864 7.210493 4.325864 11.536358 0 14.418829a8.882586 8.882586 0 0 1-10.092964-1.441236l-5.7671 14.418829c-4.325864 0-4.325864 1.441236-2.884629 1.441236z m10.092965 15.862223l-10.092965-11.536358h1.441236c1.441236 2.884629 2.884629 2.884629 5.7671 1.441236l17.303458-12.977594c1.441236-1.441236 1.441236-2.884629 0-5.7671h1.441235l8.651729 12.977593h-1.441235c-1.441236-2.884629-2.884629-2.884629-4.325865-1.441235l-17.303458 12.977593c-2.884629 0-2.884629 1.441236-1.441235 4.325865z m28.837658-5.764943l-15.862223 15.862222a2.703396 2.703396 0 0 0 0 4.325865c4.325864 4.325864 8.651729 4.325864 15.862223-2.884629 5.7671-5.7671 7.210493-11.536358 4.325864-15.862222-1.441236-2.884629-2.884629-2.884629-4.325864-1.441236z m-25.955187 10.086492c2.884629 1.441236 4.325864 1.441236 5.7671 0l15.862222-15.862222a2.703396 2.703396 0 0 0 0-4.325865h1.441236l10.092965 10.092965c7.210493 8.651729 7.210493 15.862222 0 23.070558-7.210493 5.7671-15.862222 5.7671-23.070559-1.441236l-10.092964-11.5342z m69.213832 47.58451v1.441235c-5.7671 1.441236-10.092965 1.441236-14.41883-1.441235-8.651729-5.7671-10.092965-12.977593-5.7671-21.629323 5.7671-8.651729 12.977593-10.092965 21.629323-5.7671a19.905449 19.905449 0 0 1 4.325864 5.7671 1.413188 1.413188 0 0 0 1.441236 1.441236 4.466104 4.466104 0 0 0 2.884629-1.441236h1.447708l-5.7671 8.651729h-1.441236c1.441236-5.7671 0-11.536358-4.325864-12.977593-4.325864-2.884629-10.092965 0-14.418829 7.210493-2.884629 4.325864-4.325864 7.210493-4.325865 10.092965a7.928954 7.928954 0 0 0 4.325865 7.210493c4.325864 2.884629 8.651729 2.884629 14.418829 1.441236z m28.839815-12.977594c-4.325864-1.441236-8.651729 1.441236-12.977593 10.092965-2.884629 8.651729-2.884629 14.418829 2.884629 15.862222 4.325864 1.441236 8.651729-1.441236 12.977593-10.092965 1.441236-8.645256 1.441236-14.412356-2.884629-15.855749z m0-1.441236c8.651729 4.325864 11.536358 11.536358 8.651729 20.188087-4.325864 8.651729-11.536358 11.536358-20.188086 8.651729-8.651729-4.325864-12.977593-11.536358-10.092965-20.188087q6.489875-12.977593 21.629322-8.651729z m25.955187 12.977594l-2.884629 11.536358c5.7671 1.441236 8.651729 0 10.092965-4.325865s0-7.210493-4.325864-7.210493c-1.441236-1.441236-2.884629-1.441236-2.884629 0z m12.977594 30.281051l-8.651729-1.441235-5.7671-15.862223h-1.441236l-1.441236 8.651729c-1.441236 2.884629 0 4.325864 2.884629 5.7671v1.441236l-14.412356-4.317234v-1.441236c2.884629 1.441236 4.325864 0 4.325864-2.884629l4.325865-18.744693c1.441236-2.884629 0-4.325864-2.884629-4.325865v-1.443393l14.418829 2.884629c8.651729 1.441236 11.536358 5.7671 10.092965 10.092964s-4.325864 5.7671-8.651729 5.767101l5.7671 14.418829a1.413188 1.413188 0 0 0 1.441235 1.441235z m4.325864 1.441236a4.466104 4.466104 0 0 1 2.884629-1.441236c1.441236 0 1.441236-1.441236 1.441236-2.884629l1.441235-20.188086c0-2.884629 0-4.325864-2.884629-4.325865v-1.441235l14.41883 1.441235c7.210493 1.441236 11.536358 4.325864 11.536357 10.092965 0 2.884629-1.441236 5.7671-4.325864 5.7671-1.441236 1.441236-5.7671 1.441236-11.536358 0l-1.441236 8.651729c-1.441236 2.884629 0 4.325864 2.884629 4.325864v1.441236z m12.977594-25.955187l-1.441236 11.536358c5.7671 1.441236 8.651729-1.441236 8.651729-5.7671s-1.441236-7.210493-4.325865-7.210494c-1.441236 0-2.884629 0-2.884628 1.441236z m31.715814-1.441236c-5.7671 0-7.210493 5.7671-7.210493 14.418829 0 10.092965 4.325864 14.418829 8.651729 14.41883 5.7671 0 7.210493-5.7671 7.210493-14.41883 0-10.092965-2.884629-14.418829-8.651729-14.418829z m0-1.441235c10.092965 0 15.862222 5.7671 17.303458 14.418829 0 10.092965-4.325864 15.862222-14.418829 17.303458-10.092965 0-15.862222-4.325864-17.303458-14.418829 0.002158-10.086492 4.334495-15.844962 14.427459-17.296986z m30.281051 0l1.441236 11.536358c5.7671 0 8.651729-2.884629 7.210493-8.651729-1.441236-4.325864-2.884629-5.7671-7.210493-5.767101a4.466104 4.466104 0 0 0-1.432605 2.888944z m24.513952 23.070558l-8.651729 2.884629-11.536358-12.977594h-1.441236l1.441236 8.651729c0 2.884629 1.441236 4.325864 4.325864 2.884629v1.441236l-14.418829 2.884628v-1.441235c2.884629 0 4.325864-1.441236 2.884629-4.325865l-2.884629-20.188086c0-2.884629-1.441236-4.325864-4.325864-2.884629v-1.441236l14.418829-2.884629c8.651729-1.441236 12.977593 0 14.418829 5.7671 0 4.325864-1.441236 7.210493-5.7671 8.651729l11.536358 11.536358c-1.432605 1.447708-1.432605 1.447708 0.00863 1.447708z m7.210493-12.977594l8.651729-2.884629-8.651729-8.651728v11.536357z m24.513951 1.441236l-12.977593 5.7671v-1.441236c2.884629-1.441236 2.884629-1.441236 2.884629-2.884628s-1.441236-2.884629-4.325865-4.325865l-10.092964 2.884629v5.7671q0 2.157538 4.325864 0v1.441236l-8.651729 2.884629v-1.441236c1.441236 0 2.884629-2.884629 2.884629-7.210493l1.441236-27.400738h1.441235l17.303458 18.744694c1.441236 5.7671 4.325864 7.210493 5.7671 7.210493z m24.513952-12.977593l-14.418829 8.651728v-1.434763c2.884629-1.441236 4.325864-2.884629 1.441235-5.7671l-10.086492-21.633637c-4.325864 2.884629-5.7671 5.7671-4.325864 10.092964h-1.441236l-4.325864-8.651729 24.513951-11.536357 4.325864 8.651729h-1.441235c-2.884629-4.325864-7.210493-5.7671-11.536358-2.884629l10.092964 21.629322c1.441236 4.325864 4.325864 4.325864 7.210494 2.884629z m21.629322-14.41883l-12.977593 10.092965v-1.441236c2.884629-1.441236 2.884629-2.884629 1.441235-5.7671l-11.536358-17.303458c-1.441236-1.441236-2.884629-1.441236-5.7671 0v-1.441235l12.977594-8.651729v1.441235c-2.884629 1.441236-2.884629 2.884629-1.441236 4.325865l11.536358 17.303458c1.441236 2.884629 4.325864 4.325864 5.7671 1.441235z m-1.441236-36.048151c-4.325864 2.884629-2.884629 8.651729 2.884629 15.862222s11.536358 10.092965 15.862223 5.7671c4.325864-2.884629 2.884629-8.651729-2.884629-15.862222-5.762785-5.760628-11.529885-8.645256-15.866538-5.760628z m0 0c8.651729-5.7671 15.862222-4.325864 23.070558 2.884629 5.7671 8.651729 4.325864 15.862222-2.884628 21.629322-8.651729 5.7671-15.862222 4.325864-23.070558-2.884629-5.760628-7.204021-5.760628-15.85575 2.880313-21.62285z m34.606916 10.092964c1.441236-2.884629 1.441236-4.325864-1.441235-5.7671l-15.862223-14.418829c-2.884629 0-4.325864 0-5.7671 1.441236h-1.441235l5.7671-7.210493 24.513951 1.441235-10.092965-8.651729a4.386276 4.386276 0 0 0-5.7671 0l1.441236-2.884629 5.7671-7.210493h1.441236c-1.441236 2.884629-1.441236 4.325864 0 5.7671l20.188086 17.303458-1.441235 1.441236h-31.715815l12.977594 11.536358a3.003293 3.003293 0 0 0 5.7671 0h1.441236l-5.767101 7.210493z m14.418829-73.539696c-1.441236 4.325864 1.441236 10.092965 10.092965 12.977594 8.651729 4.325864 14.418829 4.325864 17.303458-1.441236 2.884629-4.325864-1.441236-8.651729-10.092965-12.977593-8.645256-2.878156-14.412356-2.878156-17.296985 1.447708z m-1.441235 0c5.7671-8.651729 11.536358-11.536358 21.629322-7.210493 8.651729 5.7671 11.536358 11.536358 7.210493 21.629322-4.325864 8.651729-11.536358 11.536358-21.629322 7.210494-7.204021-4.319392-10.08865-11.529885-7.204021-21.62285z m10.092964-14.418829l7.210494-24.513951 8.651729 2.884629v1.441235c-5.7671-1.441236-8.651729 1.441236-10.092965 7.210494-1.441236 2.884629 0 2.884629 1.441236 4.325864l10.092964 2.884629q2.157538-6.489875-4.325864-8.651729v-1.441236l14.418829 4.325865v1.441235q-6.489875-2.157538-8.651729 4.325865l10.092965 2.884629c1.441236 1.441236 4.325864 0 4.325864-2.884629h1.441236l-5.7671 15.862222h-1.441236c1.441236-2.884629 0-4.325864-1.441236-4.325864l-20.188087-7.210494c-4.325864-2.884629-5.7671-1.441236-5.7671 1.441236z m37.491545-69.213832c5.7671 2.884629 7.210493 7.210493 5.7671 11.536358-1.441236 10.092965-7.210493 14.418829-17.303458 14.418829-10.092965-1.441236-14.418829-7.210493-14.418829-17.303458a24.362924 24.362924 0 0 1 2.884629-7.210493v-1.42829c0-1.441236 0-1.441236-1.441236-1.441236v-1.441236l10.092965 1.441236v1.441236c-5.7671 2.884629-10.092965 5.7671-10.092965 10.092964 0 5.7671 4.325864 8.651729 12.977594 10.092965 4.325864 0 7.210493 0 10.092964-1.441236a6.662479 6.662479 0 0 0 4.325865-7.210493c1.441236-4.325864 0-7.210493-2.884629-11.536358z m4.325865-38.93278l1.441235 15.862222h-1.441235c0-2.884629-1.441236-4.325864-2.884629-4.325864h-10.092965v10.092964h10.092965c2.884629 0 2.884629-1.441236 2.884629-4.325864h1.441235l1.441236 15.862222h-1.441236c0-2.884629-1.441236-4.325864-2.884629-4.325864l-21.629322 1.441235c-1.441236 0-2.884629 1.441236-2.884629 4.325865h-1.441236l-1.441235-15.862222h1.441235c0 2.884629 1.441236 4.325864 2.884629 4.325864h8.651729v-10.092965h-8.651729c-2.884629 0-2.884629 1.441236-2.884629 4.325865h-1.441235l-1.441236-15.862222h1.441236c0 2.884629 1.441236 4.325864 2.884629 4.325864l21.629322-1.441236a3.823158 3.823158 0 0 0 4.332337-4.321549z m-4.325865-20.188087l4.325865 15.862222h-1.441236c0-2.884629-1.441236-4.325864-4.325865-2.884628l-21.629322 4.325864c-1.441236 0-2.884629 1.441236-2.884629 4.325865h-1.441235l-1.441236-15.862223h1.441236c0 2.884629 1.441236 4.325864 4.325864 2.884629l21.635795-4.319392c1.441236 0 1.441236-1.441236 1.441236-4.325864z m0-4.325864c-1.441236-2.884629-2.884629-2.884629-5.7671-2.884629l-20.188087 5.7671c-1.441236 2.884629-2.884629 4.325864-1.441235 4.325864h-1.441236l-2.884629-8.651728 14.418829-20.188087-12.977593 4.325864c-2.884629 0-4.325864 2.884629-2.884629 5.7671h-1.441236l-2.884629-8.651729h1.441236c1.441236 2.884629 2.884629 2.884629 4.325864 2.884629l24.513952-7.210493v1.458496l-17.303458 25.955187 17.303458-5.7671c2.884629 0 4.325864-2.884629 2.884629-5.767101h1.441235l2.884629 8.651729z m-23.064085-37.48723l-2.884629-7.210493-8.651729 8.651729 11.536358-1.441236z m-1.441236-24.513951l7.210493 12.977593h-1.441235c-1.441236-1.441236-1.441236-2.884629-2.884629-1.441235q-2.157538 0-4.325865 4.325864l4.325865 8.651729h5.7671q2.157538 0 0-4.325864h1.441236l4.325864 8.651729h-1.441236c0-1.441236-2.884629-2.884629-7.210493-1.441236l-25.955187 1.441236v-1.441236l17.303458-20.188087c2.884629-2.884629 4.325864-5.7671 2.884629-7.210493z m-209.087046 311.466558a195.201129 195.201129 0 0 1-138.427664-57.679632 192.702699 192.702699 0 0 1-57.679631-138.427663 194.750203 194.750203 0 0 1 333.093723-136.988586 192.702699 192.702699 0 0 1 57.679631 138.427664c1.441236 106.705377-86.51729 194.666059-194.666059 194.666059z m0-8.651729a187.082312 187.082312 0 0 0 187.455566-187.455566c0-51.910374-21.629322-98.053648-54.801475-132.660564a185.144842 185.144842 0 0 0-132.660564-54.801475 187.082312 187.082312 0 0 0-187.449093 187.462039c0 51.910374 21.629322 98.053648 54.801475 132.660563a187.641114 187.641114 0 0 0 132.660564 54.801476zM605.621028 529.565642V265.683593h229.27729v260.99742H798.850167v-12.977593h-158.617908v14.418829H605.621028z m193.229139-232.151132h-158.617908v187.455567h158.617908z m-144.196921 72.091988h44.69988v-25.955186h-49.025745v-28.839816h138.427664v28.839816h-53.353767v25.955186h49.027902v28.839816h-12.977593c7.210493 11.536358 11.536358 20.188087 15.862222 27.400738l-15.862222 11.536358h20.188087v30.281051h-142.753528v-30.285366h51.910373V398.346314h-44.69988v-28.839816z m86.517289 41.81741l15.862223-11.536358h-21.63148v38.93278h21.629322c-5.7671-12.977593-11.536358-23.070558-15.862222-27.400737z m258.110634-125.452228c0-5.7671-1.441236-11.536358-2.884629-20.188087a8.427345 8.427345 0 0 0-1.441236-5.7671l44.702038-2.884629c1.441236 0 1.441236 8.651729 1.441236 27.400738h95.169019v60.562103h-38.932781v-30.283209h-160.059143v30.281051h-34.606916v-59.120867h96.612412z m-102.379512 112.472477c46.143274-11.536358 74.983089-24.513951 85.076054-38.932781H947.37511v-28.837658h141.318765v28.839816h-47.595297c-8.651729 7.210493-15.862222 12.977593-21.629322 15.862222a152.947897 152.947897 0 0 1 21.629322 21.627165c14.418829-5.7671 30.281051-17.303458 49.027903-34.606916q21.629322 12.977593 34.598285 21.635795c2.884629 2.884629 2.884629 5.7671-1.441235 8.651729l-11.536358 5.7671c-12.977593 5.7671-21.629322 10.092965-27.400738 14.418829 7.210493 27.400738 30.281051 50.469138 67.772596 69.213832-11.536358 7.210493-21.629322 18.744694-30.281051 33.16568-33.16568-18.744694-53.351609-49.027903-62.005496-89.401918l-5.7671 4.325864c2.884629 12.977593 2.884629 30.281051 2.884629 53.35161a48.658963 48.658963 0 0 1-11.536358 33.16568c-7.210493 8.651729-21.629322 12.977593-44.699881 14.418829-1.441236-12.977593-4.325864-24.513951-10.092964-33.16568h15.870852q19.467469 0 17.303458-17.303458a88.674828 88.674828 0 0 0-1.441235-20.188087c-30.281051 24.513951-64.887967 44.702038-103.820748 62.005496-5.7671-12.977593-12.977593-23.070558-23.070558-28.839816 44.702038-12.977593 85.076054-36.048152 122.567599-69.213831-1.441236-2.884629-1.441236-4.325864-2.884629-7.210494a388.626604 388.626604 0 0 1-92.286548 51.910374c-5.7671-11.536358-11.536358-21.629322-18.744693-27.400737a271.448536 271.448536 0 0 0 93.725625-46.141117c-1.441236-1.441236-1.441236-2.884629-2.884629-2.884628a595.04909 595.04909 0 0 1-76.424325 33.16568s0-1.441236-2.884629-2.884629c-7.210493-10.092965-12.977593-18.744694-18.744693-24.513951z m314.340399-95.169019h77.865561v-40.374016h11.536358c18.744694 0 27.400738 1.441236 25.955187 2.884629 0 1.441236 0 1.441236-1.441236 2.884629 0 5.7671-1.441236 10.092965-1.441236 14.418829v20.185929h77.865561v158.61575h-37.482915v-10.092964h-40.376173v21.629322c-2.884629 15.862222 5.7671 23.070558 24.513951 21.629323h38.932781c12.977593 2.884629 18.744694-5.7671 20.188086-25.955187 14.418829 5.7671 25.955187 8.651729 34.606916 11.536357-4.325864 31.715814-14.418829 44.699881-33.16568 43.258645h-85.076054c-24.513951 1.441236-36.048152-11.536358-34.606916-37.491544v-33.165681h-43.258645v24.513952H1211.242056z m77.865561 59.116552v-28.835501h-43.258645v28.839816z m36.052466-28.835501v28.839816h40.374016v-28.839816z m-79.308953 59.116552v27.400738h43.258644v-27.400738z m79.308953 28.844131h40.374016v-27.400737H1325.160083z m178.803838 103.820748V267.126986h219.184325v223.503718c5.7671 25.955187-14.418829 38.93278-62.005496 38.93278 0-15.862222-2.884629-28.839816-10.092964-37.491544q43.258645 2.157538 34.606916-12.977594v-180.245072h-148.522786v36.050309c7.210493-5.7671 12.977593-10.092965 17.303458-14.41883 2.884629 2.884629 5.7671 8.651729 11.536358 18.744694a149.851829 149.851829 0 0 1 8.651729 14.418829 337.762636 337.762636 0 0 0 7.210493-43.258645l33.16568 8.651729-7.204021 21.629323 12.977594-8.651729c4.325864 5.7671 10.092965 15.862222 18.744694 30.281051a259.415944 259.415944 0 0 0 10.092964-50.469138l31.715815 10.092965c-2.884629 15.862222-10.092965 41.817409-23.070559 79.308954 12.977593 25.955187 20.188087 44.702038 23.070559 54.801475-10.092965 2.884629-18.744694 8.651729-30.281052 15.862222a149.670596 149.670596 0 0 1-4.325864-17.303458c-2.884629-7.210493-4.325864-12.977593-5.7671-15.862222a133.301352 133.301352 0 0 0-7.210494 12.977593c-11.536358 18.744694-18.744694 33.16568-24.513951 38.932781a71.828768 71.828768 0 0 0-27.400738-14.418829 399.39272 399.39272 0 0 0 24.520424-33.169996 70.335752 70.335752 0 0 0-18.744693 8.651729c-4.315077-10.092965-7.210493-18.744694-10.092965-25.955187a334.660096 334.660096 0 0 1-31.715814 51.910374c-1.441236-4.325864-5.7671-8.651729-11.536358-15.862222v63.446732h-30.289682z m33.169995-77.874191c10.092965-12.977593 18.744694-31.715814 28.839816-54.801475-8.651729-18.744694-18.744694-34.606916-28.839816-50.469138z m79.308954-17.303458c5.7671-7.210493 10.092965-17.303458 12.977593-28.839816a434.510973 434.510973 0 0 0-23.070558-44.689092l-10.095122 33.163522c4.325864 8.651729 11.536358 21.629322 20.188087 40.374016z m-925.74363 135.553823h7.210493l11.536358 47.584509-10.092965 2.884629a84.27345 84.27345 0 0 0-23.070558-30.281052 50.799242 50.799242 0 0 0-30.281051-10.092964 39.895042 39.895042 0 0 0-23.070558 7.210493 20.554868 20.554868 0 0 0-8.651729 17.303458 17.747911 17.747911 0 0 0 7.210493 14.418829c4.325864 4.325864 12.977593 7.210493 23.070558 11.536358l27.400738 8.651729c14.418829 4.325864 24.513951 10.092965 31.715814 17.303458a34.749313 34.749313 0 0 1 10.092965 25.955187c0 12.977593-5.7671 23.070558-15.862223 31.715814s-24.513951 12.977593-40.374016 12.977594a67.356191 67.356191 0 0 1-24.513951-4.325865c-7.210493-2.884629-12.977593-7.210493-20.188087-12.977593l-4.325864 14.418829H601.305951l-10.092964-54.801476 10.092964-1.441235c5.7671 14.418829 12.977593 25.955187 23.070558 34.606916a50.803557 50.803557 0 0 0 33.165681 12.977593 40.259666 40.259666 0 0 0 25.955186-8.651729c7.210493-5.7671 11.536358-11.536358 11.536358-20.188087a23.879635 23.879635 0 0 0-7.210493-17.303458c-5.7671-4.325864-12.977593-7.210493-24.513951-11.536357l-27.400738-7.210494a92.366376 92.366376 0 0 1-31.715814-15.862222 31.625198 31.625198 0 0 1-10.092965-24.513951c0-11.536358 4.325864-20.188087 14.418829-28.839816s21.629322-11.536358 37.491545-11.536358 28.839816 4.325864 38.93278 12.977594l5.7671-12.977594z m51.910373 33.16568h5.767101l1.441235 4.325864h64.890125v-4.325864h5.7671l11.536358 33.16568-7.210493 2.884629a46.410808 46.410808 0 0 0-11.536358-18.744694c-4.325864-4.325864-10.092965-5.7671-17.303458-5.7671-2.884629 0-5.7671 0-5.7671 1.441236-1.441236 1.441236-1.441236 2.884629-1.441236 5.7671v79.308954c0 5.7671 1.441236 10.092965 2.884629 10.092964 2.884629 1.441236 5.7671 1.441236 11.536358 1.441236v7.210493h-43.258645v-7.210493c4.325864 0 7.210493 0 10.092965-1.441236 1.441236 0 2.884629-1.441236 4.325864-2.884628 0-1.441236 1.441236-4.325864 1.441236-7.210494v-80.750189c0-2.884629 0-4.325864-1.441236-5.7671a14.524548 14.524548 0 0 0-4.325864-1.441236c-8.651729 0-15.862222 1.441236-18.744694 5.7671-4.325864 4.325864-7.210493 10.092965-11.536358 18.744694l-8.651729-1.441236 11.536358-33.16568z m142.755686-2.884629h12.977594l34.606915 102.379512a23.476175 23.476175 0 0 0 4.325865 8.651729 11.014234 11.014234 0 0 0 7.210493 2.884629h1.441236v7.210493h-37.489387v-7.210493c4.325864 0 7.210493 0 8.651729-1.441236 1.441236 0 2.884629-1.441236 2.884628-4.325864a56.708739 56.708739 0 0 0-2.884628-8.651729l-7.210494-20.188087H868.063999l-8.651729 24.513951a10.899884 10.899884 0 0 0-1.441236 5.7671c0 1.441236 1.441236 2.884629 2.884629 4.325865s4.325864 1.441236 8.651729 1.441235v7.210494h-33.167838v-7.210494a12.190092 12.190092 0 0 0 8.651729-2.884628c1.441236-1.441236 2.884629-4.325864 5.7671-10.092965l34.606916-102.379512z m-14.418829 70.657225h34.606916l-17.303458-54.801475z m93.727783-67.772596h5.7671l1.441236 4.325864h64.887967v-4.325864h5.7671l11.536358 33.16568-7.210493 2.884629a46.410808 46.410808 0 0 0-11.536358-18.744694c-4.325864-4.325864-10.092965-5.7671-17.303458-5.7671-2.884629 0-5.7671 0-5.7671 1.441236-1.441236 1.441236-1.441236 2.884629-1.441236 5.7671v79.308954c0 5.7671 1.441236 10.092965 2.884629 10.092964 2.884629 1.441236 5.7671 1.441236 11.536358 1.441236v7.210493h-43.258645v-7.210493c4.325864 0 7.210493 0 10.092965-1.441236 1.441236 0 2.884629-1.441236 4.325864-2.884628 0-1.441236 1.441236-4.325864 1.441236-7.210494v-80.750189c0-2.884629 0-4.325864-1.441236-5.7671a14.524548 14.524548 0 0 0-4.325864-1.441236c-8.651729 0-15.862222 1.441236-18.744694 5.7671-4.325864 4.325864-7.210493 10.092965-11.536358 18.744694l-8.651729-1.441236 11.536358-33.16568z m102.379512 2.884629h92.286547l10.092965 30.281051-7.210493 2.884629a36.617742 36.617742 0 0 0-12.977594-18.744694c-5.7671-4.325864-14.418829-5.7671-25.955187-5.7671h-27.400737v41.817409h14.418829c5.7671 0 11.536358-1.441236 14.418829-4.325864s4.325864-7.210493 4.325864-14.418829v-1.441236h7.210494v50.469138h-7.201863v-4.325864q0-8.651729-4.325865-12.977594c-2.884629-2.884629-7.210493-4.325864-14.418829-4.325864h-14.418829v37.491545c0 4.325864 0 7.210493 1.441235 8.651729s2.884629 1.441236 7.210494 1.441235h17.303458a56.792883 56.792883 0 0 0 28.839816-7.210493c7.210493-4.325864 12.977593-11.536358 17.303457-23.070558l7.210494 2.884629-12.977594 36.048151h-95.169018v-7.210493h2.884628a12.190092 12.190092 0 0 0 8.651729-2.884629c1.441236-1.441236 1.441236-4.325864 1.441236-8.651729v-79.313269c0-2.884629 0-5.7671-1.441236-7.210493 0-1.441236-1.441236-2.884629-4.325864-2.884629a81.306834 81.306834 0 0 0-10.092965-1.441236v-5.7671z m301.371436-36.048152h8.651729l12.977593 47.584509-10.092964 2.882472c-5.7671-14.418829-12.977593-24.513951-21.629323-31.715815a44.078509 44.078509 0 0 0-28.839815-10.092964 45.739814 45.739814 0 0 0-37.491545 18.744693 74.504116 74.504116 0 0 0-15.862222 46.143274 87.125716 87.125716 0 0 0 7.210493 34.606916 60.531897 60.531897 0 0 0 21.627165 24.516109 49.623383 49.623383 0 0 0 44.69988 5.7671 27.879711 27.879711 0 0 0 12.977594-7.210494 19.22151 19.22151 0 0 0 7.210493-8.651729c1.441236-2.884629 1.441236-7.210493 1.441236-12.977593v-7.219123c0-8.651729-1.441236-12.977593-4.315077-15.862223s-8.651729-2.884629-18.744694-2.884629v-8.651729h60.562103v8.651729h-4.336652c-5.7671 0-10.092965 1.441236-11.536358 2.884629s-2.884629 5.7671-2.884629 12.977594v53.353767H1379.961559l-5.7671-12.977594c-15.862222 10.092965-31.715814 15.862222-47.58451 15.862223-21.629322 0-38.93278-7.210493-53.351609-21.629323s-21.629322-33.16568-21.629323-56.236238a80.836491 80.836491 0 0 1 21.629323-56.236238 67.030403 67.030403 0 0 1 51.901743-23.072716q23.793333 0 38.932781 12.977593l4.325864-11.536357z m59.116552 36.048152h59.116552c28.839816 0 43.258645 10.092965 43.258645 28.839815 0 10.092965-2.884629 17.303458-10.092965 23.070558s-17.303458 8.651729-30.281051 8.651729l30.281051 37.491545a24.483746 24.483746 0 0 0 8.651729 8.651729 20.496615 20.496615 0 0 0 8.651729 2.884629h1.441236v7.210493h-25.955187l-41.817409-54.801475h-14.418829v36.048152c0 5.7671 0 8.651729 1.441235 10.092964a12.190092 12.190092 0 0 0 8.651729 2.884629h2.884629v7.210493h-43.258645v-7.210493h4.325865a12.190092 12.190092 0 0 0 8.651729-2.884629c1.441236-1.441236 1.441236-5.7671 1.441235-12.977593v-74.976617c0-4.325864 0-7.210493-1.441235-8.651729a11.014234 11.014234 0 0 0-7.210494-2.884629h-4.315076v-8.651729z m30.281051 10.092964v43.258645h23.070558c11.536358 0 18.744694-1.441236 23.070559-4.325864s7.210493-8.651729 7.210493-17.303458c0-7.210493-1.441236-12.977593-5.7671-15.862223a32.104171 32.104171 0 0 0-18.744694-5.7671z m90.843155-10.092964h43.258644v7.210493h-2.884628a12.187934 12.187934 0 0 0-8.651729 2.884629c-1.441236 1.441236-2.884629 5.7671-2.884629 11.536358v73.539696c0 4.325864 0 8.651729 1.441235 10.092964a12.190092 12.190092 0 0 0 8.651729 2.884629h2.884629v7.210494h-43.258645v-7.210494h2.884629a12.190092 12.190092 0 0 0 8.651729-2.884629c1.441236-1.441236 2.884629-4.325864 2.884629-10.092964v-74.985247c0-4.325864 0-8.651729-1.441236-10.092965a12.190092 12.190092 0 0 0-8.651729-2.884629h-2.884628v-7.210493z m62.005496 7.210493v-7.210493h40.376173a205.127963 205.127963 0 0 1 37.491545 2.884628 41.107579 41.107579 0 0 1 20.188087 11.536358 48.887663 48.887663 0 0 1 12.977593 20.188087 67.356191 67.356191 0 0 1 4.315077 24.513951c0 15.862222-4.315077 28.839816-14.418829 38.932781-10.092965 11.536358-24.513951 15.862222-44.702038 15.862222h-57.666687v-7.210493h5.767101c2.884629 0 5.7671 0 5.7671-2.884629 1.441236-1.441236 1.441236-4.325864 1.441235-8.651729v-76.43727c0-5.7671-1.441236-10.092965-2.884628-10.092965 1.441236 0-2.884629-1.441236-8.651729-1.441236z m28.841973 99.494883h24.513951c4.315077 0 10.092965-1.441236 18.744694-2.884629 7.210493-1.441236 14.418829-7.210493 18.744693-14.418829a67.026088 67.026088 0 0 0 7.210494-30.281051 85.110575 85.110575 0 0 0-2.884629-20.188087 157.314755 157.314755 0 0 0-8.651729-15.862222 34.050271 34.050271 0 0 0-12.977594-8.651729 42.102204 42.102204 0 0 0-12.977593-2.884629h-33.16568v95.169019z" fill="#ffffff" p-id="1916"></path></svg>