<?xml version="1.0" encoding="utf-8"?>
<!-- Generator: Adobe Illustrator 23.0.0, SVG Export Plug-In . SVG Version: 6.00 Build 0)  -->
<svg version="1.1" id="图层_1" xmlns="http://www.w3.org/2000/svg" xmlns:xlink="http://www.w3.org/1999/xlink" x="0px" y="0px"
	 viewBox="0 0 1920 1080" style="enable-background:new 0 0 1920 1080;" xml:space="preserve">
<style type="text/css">
	.st0{fill:#020512;}
	.st1{fill:none;stroke:#222535;stroke-miterlimit:10;}
	.st2{fill:none;stroke:#081021;stroke-miterlimit:10;}
</style>
<rect class="st0" width="1920" height="1080"/>
<g>
	<line class="st1" x1="27.4" y1="0" x2="27.4" y2="1080"/>
	<line class="st1" x1="104.2" y1="0" x2="104.2" y2="1080"/>
	<line class="st1" x1="181" y1="0" x2="181" y2="1080"/>
	<line class="st1" x1="257.8" y1="0" x2="257.8" y2="1080"/>
	<line class="st1" x1="334.6" y1="0" x2="334.6" y2="1080"/>
	<line class="st1" x1="411.4" y1="0" x2="411.4" y2="1080"/>
	<line class="st1" x1="488.2" y1="0" x2="488.2" y2="1080"/>
	<line class="st1" x1="565" y1="0" x2="565" y2="1080"/>
	<line class="st1" x1="641.8" y1="0" x2="641.8" y2="1080"/>
	<line class="st1" x1="718.6" y1="0" x2="718.6" y2="1080"/>
	<line class="st1" x1="795.4" y1="0" x2="795.4" y2="1080"/>
	<line class="st1" x1="872.2" y1="0" x2="872.2" y2="1080"/>
	<line class="st1" x1="949" y1="0" x2="949" y2="1080"/>
	<line class="st1" x1="1025.8" y1="0" x2="1025.8" y2="1080"/>
	<line class="st1" x1="1102.6" y1="0" x2="1102.6" y2="1080"/>
	<line class="st1" x1="1179.4" y1="0" x2="1179.4" y2="1080"/>
	<line class="st1" x1="1256.2" y1="0" x2="1256.2" y2="1080"/>
	<line class="st1" x1="1333" y1="0" x2="1333" y2="1080"/>
	<line class="st1" x1="1409.8" y1="0" x2="1409.8" y2="1080"/>
	<line class="st1" x1="1486.6" y1="0" x2="1486.6" y2="1080"/>
	<line class="st1" x1="1563.4" y1="0" x2="1563.4" y2="1080"/>
	<line class="st1" x1="1640.2" y1="0" x2="1640.2" y2="1080"/>
	<line class="st1" x1="1717" y1="0" x2="1717" y2="1080"/>
	<line class="st1" x1="1793.8" y1="0" x2="1793.8" y2="1080"/>
	<g>
		<line class="st2" x1="65.8" y1="0" x2="65.8" y2="1080"/>
		<line class="st2" x1="142.6" y1="0" x2="142.6" y2="1080"/>
		<line class="st2" x1="219.4" y1="0" x2="219.4" y2="1080"/>
		<line class="st2" x1="296.2" y1="0" x2="296.2" y2="1080"/>
		<line class="st2" x1="373" y1="0" x2="373" y2="1080"/>
		<line class="st2" x1="449.8" y1="0" x2="449.8" y2="1080"/>
		<line class="st2" x1="526.6" y1="0" x2="526.6" y2="1080"/>
		<line class="st2" x1="603.4" y1="0" x2="603.4" y2="1080"/>
		<line class="st2" x1="680.2" y1="0" x2="680.2" y2="1080"/>
		<line class="st2" x1="757" y1="0" x2="757" y2="1080"/>
		<line class="st2" x1="833.8" y1="0" x2="833.8" y2="1080"/>
		<line class="st2" x1="910.6" y1="0" x2="910.6" y2="1080"/>
		<line class="st2" x1="987.4" y1="0" x2="987.4" y2="1080"/>
		<line class="st2" x1="1064.2" y1="0" x2="1064.2" y2="1080"/>
		<line class="st2" x1="1141" y1="0" x2="1141" y2="1080"/>
		<line class="st2" x1="1217.8" y1="0" x2="1217.8" y2="1080"/>
		<line class="st2" x1="1294.6" y1="0" x2="1294.6" y2="1080"/>
		<line class="st2" x1="1371.4" y1="0" x2="1371.4" y2="1080"/>
		<line class="st2" x1="1448.2" y1="0" x2="1448.2" y2="1080"/>
		<line class="st2" x1="1525" y1="0" x2="1525" y2="1080"/>
		<line class="st2" x1="1601.8" y1="0" x2="1601.8" y2="1080"/>
		<line class="st2" x1="1678.6" y1="0" x2="1678.6" y2="1080"/>
		<line class="st2" x1="1755.4" y1="0" x2="1755.4" y2="1080"/>
		<line class="st2" x1="1832.2" y1="0" x2="1832.2" y2="1080"/>
	</g>
	<line class="st1" x1="1870.6" y1="0" x2="1870.6" y2="1080"/>
	<line class="st1" x1="1903.5" y1="0" x2="1903.5" y2="1080"/>
	<line class="st1" x1="1919" y1="35.4" x2="-1" y2="35.4"/>
	<line class="st1" x1="1920" y1="112.2" x2="-1" y2="112.2"/>
	<line class="st1" x1="1920" y1="189" x2="-1" y2="189"/>
	<line class="st1" x1="1920" y1="265.8" x2="-1" y2="265.8"/>
	<line class="st1" x1="1920" y1="342.6" x2="-1" y2="342.6"/>
	<line class="st1" x1="1920" y1="419.4" x2="-1" y2="419.4"/>
	<line class="st1" x1="1920" y1="496.2" x2="-1" y2="496.2"/>
	<line class="st1" x1="1920" y1="573" x2="-1" y2="573"/>
	<line class="st1" x1="1919" y1="649.8" x2="-2" y2="649.8"/>
	<line class="st1" x1="1919" y1="726.6" x2="-2" y2="726.6"/>
	<line class="st1" x1="1919" y1="803.4" x2="-2" y2="803.4"/>
	<line class="st1" x1="1919" y1="880.2" x2="-2" y2="880.2"/>
	<line class="st1" x1="1919" y1="957" x2="-2" y2="957"/>
	<line class="st1" x1="1919" y1="1033.8" x2="-2" y2="1033.8"/>
	<g>
		<line class="st2" x1="1919" y1="73.8" x2="-1" y2="73.8"/>
		<line class="st2" x1="1919" y1="150.6" x2="-1" y2="150.6"/>
		<line class="st2" x1="1919" y1="227.4" x2="-1" y2="227.4"/>
		<line class="st2" x1="1919" y1="304.2" x2="-1" y2="304.2"/>
		<line class="st2" x1="1919" y1="381" x2="-1" y2="381"/>
		<line class="st2" x1="1919" y1="457.8" x2="-1" y2="457.8"/>
		<line class="st2" x1="1919" y1="534.6" x2="-1" y2="534.6"/>
		<line class="st2" x1="1919" y1="611.4" x2="-1" y2="611.4"/>
		<line class="st2" x1="1919" y1="688.2" x2="-1" y2="688.2"/>
		<line class="st2" x1="1919" y1="765" x2="-1" y2="765"/>
		<line class="st2" x1="1919" y1="841.8" x2="-1" y2="841.8"/>
		<line class="st2" x1="1919" y1="918.6" x2="-1" y2="918.6"/>
		<line class="st2" x1="1919" y1="995.4" x2="-1" y2="995.4"/>
		<line class="st2" x1="1919" y1="1072.2" x2="-1" y2="1072.2"/>
	</g>
</g>
</svg>
